<?xml version="1.0" encoding="UTF-8"?>
<!DOCTYPE svg PUBLIC "-//W3C//DTD SVG 1.1//EN" "http://www.w3.org/Graphics/SVG/1.1/DTD/svg11.dtd">
<svg xmlns="http://www.w3.org/2000/svg" version="1.1" width="1000px" height="1000px" style="shape-rendering:geometricPrecision; text-rendering:geometricPrecision; image-rendering:optimizeQuality; fill-rule:evenodd; clip-rule:evenodd" xmlns:xlink="http://www.w3.org/1999/xlink">
<g><path style="opacity:1" fill="#fefefe" d="M -0.5,-0.5 C 332.833,-0.5 666.167,-0.5 999.5,-0.5C 999.5,332.833 999.5,666.167 999.5,999.5C 666.167,999.5 332.833,999.5 -0.5,999.5C -0.5,666.167 -0.5,332.833 -0.5,-0.5 Z"/></g>
<g><path style="opacity:1" fill="#080808" d="M 192.5,417.5 C 228.996,416.502 265.663,416.168 302.5,416.5C 302.152,420.557 301.486,424.557 300.5,428.5C 264.552,424.325 228.552,420.658 192.5,417.5 Z"/></g>
<g><path style="opacity:1" fill="#020202" d="M 309.5,489.5 C 308.833,489.5 308.167,489.5 307.5,489.5C 303.167,489.5 298.833,489.5 294.5,489.5C 300.323,465.208 305.99,440.874 311.5,416.5C 333.5,416.5 355.5,416.5 377.5,416.5C 378.778,440.835 380.111,465.168 381.5,489.5C 357.5,489.5 333.5,489.5 309.5,489.5 Z"/></g>
<g><path style="opacity:1" fill="#030303" d="M 481.5,441.5 C 506.328,442.498 531.328,442.831 556.5,442.5C 556.5,443.833 556.5,445.167 556.5,446.5C 555.781,448.764 555.448,451.097 555.5,453.5C 530.492,451.32 505.492,448.986 480.5,446.5C 480.08,453.526 479.413,460.526 478.5,467.5C 515.502,467.333 552.502,467.5 589.5,468C 588.352,471.719 587.686,475.552 587.5,479.5C 550.928,475.043 514.261,471.376 477.5,468.5C 477.554,475.578 476.887,482.578 475.5,489.5C 461.167,489.5 446.833,489.5 432.5,489.5C 432.67,488.178 432.337,487.011 431.5,486C 419.171,485.5 406.838,485.333 394.5,485.5C 394.5,486.833 394.5,488.167 394.5,489.5C 392.473,489.662 390.473,489.495 388.5,489C 398.5,465 408.5,441 418.5,417C 466.166,416.5 513.832,416.333 561.5,416.5C 560.728,420.452 560.395,424.452 560.5,428.5C 534.827,425.899 509.16,423.233 483.5,420.5C 482.888,427.508 482.222,434.508 481.5,441.5 Z"/></g>
<g><path style="opacity:1" fill="#020202" d="M 689.5,441.5 C 710.66,442.497 731.993,442.831 753.5,442.5C 753.5,443.833 753.5,445.167 753.5,446.5C 753.326,448.861 752.993,451.194 752.5,453.5C 730.836,451.5 709.169,449.5 687.5,447.5C 687.058,451.154 686.724,454.821 686.5,458.5C 674.149,458.168 661.815,458.501 649.5,459.5C 648.607,462.084 648.274,464.751 648.5,467.5C 682.167,467.5 715.833,467.5 749.5,467.5C 749.167,470.833 748.833,474.167 748.5,477.5C 745.946,478.388 743.279,478.721 740.5,478.5C 711.846,475.398 683.179,472.398 654.5,469.5C 652.167,469.833 649.833,470.167 647.5,470.5C 645.96,476.743 644.96,483.076 644.5,489.5C 627.356,489.813 610.356,489.813 593.5,489.5C 595.353,480.195 597.02,470.862 598.5,461.5C 599.404,460.791 599.737,459.791 599.5,458.5C 587.5,458.5 575.5,458.5 563.5,458.5C 563.5,457.5 563.5,456.5 563.5,455.5C 565.515,442.775 567.848,430.108 570.5,417.5C 633.163,416.5 695.83,416.167 758.5,416.5C 757.979,420.481 757.646,424.481 757.5,428.5C 735.819,426.332 714.152,423.999 692.5,421.5C 691.284,428.132 690.284,434.799 689.5,441.5 Z"/></g>
<g><path style="opacity:1" fill="#020202" d="M 766.5,416.5 C 783.513,416.167 800.513,416.501 817.5,417.5C 812.885,441.075 808.719,464.742 805,488.5C 788.244,489.492 771.411,489.825 754.5,489.5C 758.66,465.194 762.66,440.86 766.5,416.5 Z"/></g>
<g><path style="opacity:1" fill="#878787" d="M 296.5,444.5 C 280.014,443.167 263.18,442.5 246,442.5C 228.997,442.5 212.163,442.833 195.5,443.5C 192.432,443.453 189.432,442.953 186.5,442C 223.498,441.5 260.498,441.333 297.5,441.5C 297.737,442.791 297.404,443.791 296.5,444.5 Z"/></g>
<g><path style="opacity:1" fill="#888888" d="M 481.5,441.5 C 506.833,441.5 532.167,441.5 557.5,441.5C 557.784,443.415 557.451,445.081 556.5,446.5C 556.5,445.167 556.5,443.833 556.5,442.5C 531.328,442.831 506.328,442.498 481.5,441.5 Z"/></g>
<g><path style="opacity:1" fill="#878787" d="M 689.5,441.5 C 711.167,441.5 732.833,441.5 754.5,441.5C 754.784,443.415 754.451,445.081 753.5,446.5C 753.5,445.167 753.5,443.833 753.5,442.5C 731.993,442.831 710.66,442.497 689.5,441.5 Z"/></g>
<g><path style="opacity:1" fill="#080808" d="M 195.5,443.5 C 212.163,442.833 228.997,442.5 246,442.5C 263.18,442.5 280.014,443.167 296.5,444.5C 295.677,447.461 295.01,450.461 294.5,453.5C 261.478,450.429 228.478,447.096 195.5,443.5 Z"/></g>
<g><path style="opacity:1" fill="#767676" d="M 563.5,455.5 C 563.5,456.5 563.5,457.5 563.5,458.5C 575.5,458.5 587.5,458.5 599.5,458.5C 599.737,459.791 599.404,460.791 598.5,461.5C 586.88,459.521 574.88,458.854 562.5,459.5C 562.232,457.901 562.566,456.568 563.5,455.5 Z"/></g>
<g><path style="opacity:1" fill="#0b0b0b" d="M 182.5,468.5 C 218.329,467.502 254.329,467.168 290.5,467.5C 290.219,471.188 289.719,474.855 289,478.5C 287.938,479.097 286.772,479.43 285.5,479.5C 251.194,475.503 216.861,471.836 182.5,468.5 Z"/></g>
<g><path style="opacity:1" fill="#646464" d="M 748.5,477.5 C 747.666,478.748 746.333,479.415 744.5,479.5C 742.955,479.489 741.622,479.156 740.5,478.5C 743.279,478.721 745.946,478.388 748.5,477.5 Z"/></g>
<g><path style="opacity:1" fill="#2e2e2e" d="M 172.5,488.5 C 175.687,487.194 179.02,487.194 182.5,488.5C 179.348,488.712 176.015,488.712 172.5,488.5 Z"/></g>
<g><path style="opacity:1" fill="#2e2e2e" d="M 401.5,488.5 C 404.687,487.194 408.02,487.194 411.5,488.5C 408.348,488.712 405.015,488.712 401.5,488.5 Z"/></g>
<g><path style="opacity:1" fill="#2d2d2d" d="M 669.5,488.5 C 672.687,487.194 676.02,487.194 679.5,488.5C 676.348,488.712 673.015,488.712 669.5,488.5 Z"/></g>
<g><path style="opacity:1" fill="#0c0c0c" d="M 207.5,487.5 C 207.5,489.167 207.5,490.833 207.5,492.5C 207.5,493.167 207.5,493.833 207.5,494.5C 207.5,494.833 207.5,495.167 207.5,495.5C 207.5,496.5 207.5,497.5 207.5,498.5C 210.85,498.335 214.183,498.502 217.5,499C 213.367,498.906 209.701,499.74 206.5,501.5C 206.5,501.833 206.5,502.167 206.5,502.5C 206.5,503.5 206.5,504.5 206.5,505.5C 219.833,505.833 219.833,506.167 206.5,506.5C 205.596,507.209 205.263,508.209 205.5,509.5C 205.5,509.833 205.5,510.167 205.5,510.5C 202.612,511.01 200.279,510.344 198.5,508.5C 199.329,505.531 199.495,502.531 199,499.5C 197.667,502.833 196.333,506.167 195,509.5C 192.959,510.423 190.792,510.756 188.5,510.5C 188.474,497.257 187.808,497.257 186.5,510.5C 183.833,510.5 181.167,510.5 178.5,510.5C 178.993,508.194 179.326,505.861 179.5,503.5C 180.924,501.485 181.59,499.152 181.5,496.5C 182.341,494.621 182.675,492.621 182.5,490.5C 183.404,489.791 183.737,488.791 183.5,487.5C 186.833,487.5 190.167,487.5 193.5,487.5C 193.334,491.514 193.501,495.514 194,499.5C 195.5,495.833 197,492.167 198.5,488.5C 201.428,487.516 204.428,487.183 207.5,487.5 Z"/></g>
<g><path style="opacity:1" fill="#090909" d="M 424.5,493.5 C 423.662,493.842 423.328,494.508 423.5,495.5C 423.5,496.5 423.5,497.5 423.5,498.5C 422.566,499.568 422.232,500.901 422.5,502.5C 422.5,503.167 422.5,503.833 422.5,504.5C 421.549,505.919 421.216,507.585 421.5,509.5C 421.5,509.833 421.5,510.167 421.5,510.5C 418.941,510.802 416.607,510.468 414.5,509.5C 415.556,504.219 416.223,498.886 416.5,493.5C 415.167,493.5 413.833,493.5 412.5,493.5C 412.5,492.833 412.5,492.167 412.5,491.5C 412.5,490.167 412.5,488.833 412.5,487.5C 418.537,487.171 424.537,487.504 430.5,488.5C 429.691,490.071 429.357,491.738 429.5,493.5C 427.833,493.5 426.167,493.5 424.5,493.5 Z"/></g>
<g><path style="opacity:1" fill="#070707" d="M 687.5,487.5 C 687.5,488.833 687.5,490.167 687.5,491.5C 686.566,492.568 686.232,493.901 686.5,495.5C 686.5,496.167 686.5,496.833 686.5,497.5C 685.612,500.054 685.279,502.721 685.5,505.5C 690.179,505.334 694.845,505.501 699.5,506C 696.854,506.497 694.187,506.664 691.5,506.5C 691.5,507.5 691.5,508.5 691.5,509.5C 694.922,509.006 696.589,509.339 696.5,510.5C 694.833,510.5 693.167,510.5 691.5,510.5C 686.381,511.103 681.715,510.436 677.5,508.5C 677.5,507.833 677.5,507.167 677.5,506.5C 678.434,505.432 678.768,504.099 678.5,502.5C 679.159,499.545 679.492,496.545 679.5,493.5C 680.338,493.158 680.672,492.492 680.5,491.5C 680.5,490.167 680.5,488.833 680.5,487.5C 682.833,487.5 685.167,487.5 687.5,487.5 Z"/></g>
<g><path style="opacity:1" fill="#959595" d="M 182.5,490.5 C 182.675,492.621 182.341,494.621 181.5,496.5C 181.167,496.5 180.833,496.5 180.5,496.5C 180.5,495.833 180.5,495.167 180.5,494.5C 180.938,494.565 181.272,494.399 181.5,494C 180.833,493.667 180.167,493.333 179.5,493C 175.082,492.792 170.749,492.126 166.5,491C 171.823,490.501 177.156,490.334 182.5,490.5 Z"/></g>
<g><path style="opacity:1" fill="#7b7b7b" d="M 207.5,487.5 C 208.404,488.209 208.737,489.209 208.5,490.5C 211.898,490.18 215.232,490.513 218.5,491.5C 214.893,492.489 211.226,492.823 207.5,492.5C 207.5,490.833 207.5,489.167 207.5,487.5 Z"/></g>
<g><path style="opacity:1" fill="#969696" d="M 229.5,491.5 C 236.401,490.19 243.401,490.19 250.5,491.5C 249.5,492.5 248.5,493.5 247.5,494.5C 247.389,493.883 247.056,493.383 246.5,493C 244.833,492.833 243.167,492.667 241.5,492.5C 239.36,492.556 237.694,493.223 236.5,494.5C 236.167,494.5 235.833,494.5 235.5,494.5C 235.5,493.5 235.5,492.5 235.5,491.5C 233.5,491.5 231.5,491.5 229.5,491.5 Z"/></g>
<g><path style="opacity:1" fill="#858585" d="M 251.5,491.5 C 255.319,490.834 259.319,490.501 263.5,490.5C 267.893,490.509 271.893,491.176 275.5,492.5C 271.069,492.769 266.735,492.436 262.5,491.5C 258.833,491.5 255.167,491.5 251.5,491.5 Z"/></g>
<g><path style="opacity:1" fill="#7c7c7c" d="M 278.5,491.5 C 285.344,490.181 292.344,490.181 299.5,491.5C 295.796,492.233 292.129,492.9 288.5,493.5C 285.663,491.598 282.329,490.931 278.5,491.5 Z"/></g>
<g><path style="opacity:1" fill="#b9b9b9" d="M 307.5,489.5 C 308.167,489.5 308.833,489.5 309.5,489.5C 316.734,490.198 324.067,490.864 331.5,491.5C 330.737,493.368 329.737,495.035 328.5,496.5C 324.627,494.57 320.294,493.903 315.5,494.5C 315.414,493.504 315.748,492.671 316.5,492C 311.925,490.703 308.758,492.203 307,496.5C 306.506,494.866 306.34,493.199 306.5,491.5C 304.5,491.5 302.5,491.5 300.5,491.5C 302.833,490.833 305.167,490.167 307.5,489.5 Z"/></g>
<g><path style="opacity:1" fill="#8a8a8a" d="M 355.5,491.5 C 363.343,490.18 371.343,490.18 379.5,491.5C 376.232,492.487 372.898,492.82 369.5,492.5C 364.93,491.559 360.263,491.226 355.5,491.5 Z"/></g>
<g><path style="opacity:1" fill="#9f9f9f" d="M 440.5,491.5 C 449.068,490.185 457.735,490.185 466.5,491.5C 466.167,492.5 465.5,493.167 464.5,493.5C 461.491,492.717 458.324,492.05 455,491.5C 454.098,491.743 453.265,492.077 452.5,492.5C 448.702,491.517 444.702,491.183 440.5,491.5 Z"/></g>
<g><path style="opacity:1" fill="#777777" d="M 468.5,491.5 C 474.346,490.183 480.346,490.183 486.5,491.5C 483.232,492.487 479.898,492.82 476.5,492.5C 474.052,491.527 471.385,491.194 468.5,491.5 Z"/></g>
<g><path style="opacity:1" fill="#868686" d="M 498.5,491.5 C 501.146,490.836 503.979,490.502 507,490.5C 510.252,490.519 513.085,491.186 515.5,492.5C 511.833,492.5 508.167,492.5 504.5,492.5C 502.735,491.539 500.735,491.205 498.5,491.5 Z"/></g>
<g><path style="opacity:1" fill="#999999" d="M 534.5,490.5 C 538.702,490.183 542.702,490.517 546.5,491.5C 542.276,492.969 538.276,492.636 534.5,490.5 Z"/></g>
<g><path style="opacity:1" fill="#868686" d="M 549.5,491.5 C 570.449,490.944 573.449,490.944 558.5,491.5C 555.5,491.5 552.5,491.5 549.5,491.5 Z"/></g>
<g><path style="opacity:1" fill="#949494" d="M 595.5,492.5 C 591.727,492.737 588.06,492.237 584.5,491C 586.333,490.833 588.167,490.667 590,490.5C 592.295,490.547 594.129,491.213 595.5,492.5 Z"/></g>
<g><path style="opacity:1" fill="#979797" d="M 623.5,492.5 C 619.418,492.656 615.418,492.156 611.5,491C 613.5,490.833 615.5,490.667 617.5,490.5C 619.952,490.539 621.952,491.206 623.5,492.5 Z"/></g>
<g><path style="opacity:1" fill="#959595" d="M 656.5,491.5 C 664.401,490.187 672.401,490.187 680.5,491.5C 680.672,492.492 680.338,493.158 679.5,493.5C 673.778,492.34 668.112,492.007 662.5,492.5C 660.735,491.539 658.735,491.205 656.5,491.5 Z"/></g>
<g><path style="opacity:1" fill="#8b8b8b" d="M 687.5,487.5 C 688.404,488.209 688.737,489.209 688.5,490.5C 693.214,490.173 697.88,490.507 702.5,491.5C 697.497,492.666 692.497,492.666 687.5,491.5C 687.5,490.167 687.5,488.833 687.5,487.5 Z"/></g>
<g><path style="opacity:1" fill="#868686" d="M 703.5,491.5 C 709.346,490.183 715.346,490.183 721.5,491.5C 717.459,492.227 713.459,492.894 709.5,493.5C 708.082,491.692 706.082,491.025 703.5,491.5 Z"/></g>
<g><path style="opacity:1" fill="#8d8d8d" d="M 735.5,491.5 C 742.068,490.191 748.734,490.191 755.5,491.5C 755.737,492.791 755.404,493.791 754.5,494.5C 751.155,492.783 747.489,492.116 743.5,492.5C 741.052,491.527 738.385,491.194 735.5,491.5 Z"/></g>
<g><path style="opacity:1" fill="#8e8e8e" d="M 797.5,491.5 C 797.5,491.167 797.5,490.833 797.5,490.5C 805.772,489.915 813.772,490.582 821.5,492.5C 821.737,493.791 821.404,494.791 820.5,495.5C 820.119,494.069 819.119,493.236 817.5,493C 814.854,492.503 812.187,492.336 809.5,492.5C 805.702,491.517 801.702,491.183 797.5,491.5 Z"/></g>
<g><path style="opacity:1" fill="#0e0e0e" d="M 229.5,491.5 C 231.5,491.5 233.5,491.5 235.5,491.5C 235.5,492.5 235.5,493.5 235.5,494.5C 235.5,494.833 235.5,495.167 235.5,495.5C 235.5,496.5 235.5,497.5 235.5,498.5C 238.85,498.335 242.183,498.502 245.5,499C 241.367,498.906 237.701,499.74 234.5,501.5C 234.5,501.833 234.5,502.167 234.5,502.5C 234.586,503.496 234.252,504.329 233.5,505C 248.152,505.831 248.152,506.331 233.5,506.5C 232.512,507.795 231.512,509.128 230.5,510.5C 227.201,511.376 223.868,511.543 220.5,511C 219.619,510.292 218.953,509.458 218.5,508.5C 218.5,506.167 218.5,503.833 218.5,501.5C 218.5,500.167 218.5,498.833 218.5,497.5C 219.338,497.158 219.672,496.492 219.5,495.5C 219.5,494.167 219.5,492.833 219.5,491.5C 221.5,491.5 223.5,491.5 225.5,491.5C 225.002,496.152 224.669,500.819 224.5,505.5C 225.5,505.5 226.5,505.5 227.5,505.5C 228.26,500.85 228.926,496.183 229.5,491.5 Z"/></g>
<g><path style="opacity:1" fill="#0d0d0d" d="M 250.5,491.5 C 250.833,491.5 251.167,491.5 251.5,491.5C 255.167,491.5 258.833,491.5 262.5,491.5C 261.89,492.391 261.557,493.391 261.5,494.5C 261.5,494.833 261.5,495.167 261.5,495.5C 258.921,496.228 256.254,496.728 253.5,497C 255.392,497.973 257.392,498.64 259.5,499C 260.252,499.671 260.586,500.504 260.5,501.5C 260.5,503.167 260.5,504.833 260.5,506.5C 260.5,506.833 260.5,507.167 260.5,507.5C 259.5,508.5 258.5,509.5 257.5,510.5C 253.333,511.803 249.166,511.803 245,510.5C 244.405,509.101 244.572,507.768 245.5,506.5C 248.447,505.679 251.447,505.179 254.5,505C 249.361,505.025 246.694,502.525 246.5,497.5C 247.338,497.158 247.672,496.492 247.5,495.5C 247.5,495.167 247.5,494.833 247.5,494.5C 248.5,493.5 249.5,492.5 250.5,491.5 Z"/></g>
<g><path style="opacity:1" fill="#0d0d0d" d="M 278.5,491.5 C 282.329,490.931 285.663,491.598 288.5,493.5C 288.5,493.833 288.5,494.167 288.5,494.5C 288.5,494.833 288.5,495.167 288.5,495.5C 285.921,496.228 283.254,496.728 280.5,497C 283.457,497.687 285.791,499.187 287.5,501.5C 287.232,503.099 287.566,504.432 288.5,505.5C 291.187,505.336 293.854,505.503 296.5,506C 293.5,506.333 290.5,506.667 287.5,507C 286.635,508.359 285.635,509.526 284.5,510.5C 280.167,511.833 275.833,511.833 271.5,510.5C 271.5,510.167 271.5,509.833 271.5,509.5C 272.234,508.292 272.567,506.959 272.5,505.5C 275.518,505.665 278.518,505.498 281.5,505C 278.618,504.728 275.951,503.894 273.5,502.5C 273.311,498.963 273.977,495.63 275.5,492.5C 276.391,491.89 277.391,491.557 278.5,491.5 Z"/></g>
<g><path style="opacity:1" fill="#090909" d="M 300.5,491.5 C 302.5,491.5 304.5,491.5 306.5,491.5C 306.34,493.199 306.506,494.866 307,496.5C 308.758,492.203 311.925,490.703 316.5,492C 315.748,492.671 315.414,493.504 315.5,494.5C 314.833,494.5 314.5,494.833 314.5,495.5C 313.11,496.899 312.11,498.566 311.5,500.5C 310.167,501.167 310.167,501.833 311.5,502.5C 311.5,503.5 311.5,504.5 311.5,505.5C 315.514,505.334 319.514,505.501 323.5,506C 319.789,506.175 316.122,506.675 312.5,507.5C 312.833,508.167 313.167,508.833 313.5,509.5C 311.257,510.474 308.924,510.808 306.5,510.5C 305.251,502.652 304.585,502.652 304.5,510.5C 302.076,510.808 299.743,510.474 297.5,509.5C 298.608,504.515 299.608,499.515 300.5,494.5C 300.5,493.5 300.5,492.5 300.5,491.5 Z"/></g>
<g><path style="opacity:1" fill="#050505" d="M 331.5,491.5 C 334.5,491.5 337.5,491.5 340.5,491.5C 340.5,492.5 340.5,493.5 340.5,494.5C 340.198,497.059 340.532,499.393 341.5,501.5C 341.5,501.833 341.5,502.167 341.5,502.5C 341.5,503.5 341.5,504.5 341.5,505.5C 344.85,505.335 348.183,505.502 351.5,506C 347.689,505.917 344.355,506.75 341.5,508.5C 340.082,510.308 338.082,510.975 335.5,510.5C 335.5,509.5 335.5,508.5 335.5,507.5C 332.68,507.087 330.68,508.087 329.5,510.5C 327.396,510.799 325.396,510.466 323.5,509.5C 324.747,507.677 325.414,505.677 325.5,503.5C 327.293,501.574 328.293,499.241 328.5,496.5C 329.737,495.035 330.737,493.368 331.5,491.5 Z"/></g>
<g><path style="opacity:1" fill="#0c0c0c" d="M 355.5,491.5 C 360.263,491.226 364.93,491.559 369.5,492.5C 371.988,494.388 374.988,495.055 378.5,494.5C 378.03,495.693 377.03,496.36 375.5,496.5C 373.488,496.16 371.488,495.827 369.5,495.5C 369.5,497.167 369.5,498.833 369.5,500.5C 368.662,500.842 368.328,501.508 368.5,502.5C 367.522,502.811 366.855,503.478 366.5,504.5C 371.467,505.329 376.467,505.829 381.5,506C 376.394,505.886 371.727,506.72 367.5,508.5C 366.082,510.308 364.082,510.975 361.5,510.5C 359.971,504.004 358.971,504.004 358.5,510.5C 356.5,510.5 354.5,510.5 352.5,510.5C 352.5,508.5 352.5,506.5 352.5,504.5C 353.338,504.158 353.672,503.492 353.5,502.5C 353.911,498.779 354.578,495.112 355.5,491.5 Z"/></g>
<g><path style="opacity:1" fill="#060606" d="M 380.5,491.5 C 385.511,491.334 390.511,491.501 395.5,492C 394.62,493.356 394.286,494.856 394.5,496.5C 393.167,496.5 391.833,496.5 390.5,496.5C 389.193,501.066 388.526,505.733 388.5,510.5C 385.941,510.802 383.607,510.468 381.5,509.5C 382.702,505.286 383.369,500.952 383.5,496.5C 381.821,496.715 380.821,496.048 380.5,494.5C 380.5,493.5 380.5,492.5 380.5,491.5 Z"/></g>
<g><path style="opacity:1" fill="#0e0e0e" d="M 440.5,491.5 C 444.702,491.183 448.702,491.517 452.5,492.5C 455.061,494.094 458.061,495.094 461.5,495.5C 456.21,495.206 450.877,495.706 445.5,497C 445.043,497.414 444.709,497.914 444.5,498.5C 446.975,498.964 448.975,499.964 450.5,501.5C 450.5,501.833 450.5,502.167 450.5,502.5C 448.473,502.338 446.473,502.505 444.5,503C 444.043,503.414 443.709,503.914 443.5,504.5C 448.792,505.495 454.125,505.828 459.5,505.5C 459.158,506.338 458.492,506.672 457.5,506.5C 454.612,505.99 452.279,506.656 450.5,508.5C 450.5,508.833 450.5,509.167 450.5,509.5C 450.5,510.167 450.167,510.5 449.5,510.5C 445.5,510.5 441.5,510.5 437.5,510.5C 437.5,509.5 437.5,508.5 437.5,507.5C 437.833,504.167 438.167,500.833 438.5,497.5C 439.338,497.158 439.672,496.492 439.5,495.5C 439.232,493.901 439.566,492.568 440.5,491.5 Z"/></g>
<g><path style="opacity:1" fill="#080808" d="M 466.5,491.5 C 467.167,491.5 467.833,491.5 468.5,491.5C 471.385,491.194 474.052,491.527 476.5,492.5C 476.5,492.833 476.5,493.167 476.5,493.5C 475.662,493.842 475.328,494.508 475.5,495.5C 475.5,495.833 475.5,496.167 475.5,496.5C 469.102,495.857 466.436,498.857 467.5,505.5C 472.844,505.334 478.177,505.501 483.5,506C 480.183,506.498 476.85,506.665 473.5,506.5C 473.5,507.833 473.5,509.167 473.5,510.5C 468.595,512.567 464.595,511.567 461.5,507.5C 461.5,505.833 461.5,504.167 461.5,502.5C 461.647,499.208 462.647,496.208 464.5,493.5C 465.5,493.167 466.167,492.5 466.5,491.5 Z"/></g>
<g><path style="opacity:1" fill="#0b0b0b" d="M 498.5,491.5 C 500.735,491.205 502.735,491.539 504.5,492.5C 503.596,493.209 503.263,494.209 503.5,495.5C 503.5,496.5 503.5,497.5 503.5,498.5C 516.833,498.833 516.833,499.167 503.5,499.5C 502.596,500.209 502.263,501.209 502.5,502.5C 502.5,503.5 502.5,504.5 502.5,505.5C 505.85,505.335 509.183,505.502 512.5,506C 508.848,506.499 505.182,506.665 501.5,506.5C 501.5,507.833 501.5,509.167 501.5,510.5C 499.5,510.5 497.5,510.5 495.5,510.5C 495.5,509.5 495.5,508.5 495.5,507.5C 495.5,506.5 495.5,505.5 495.5,504.5C 491.515,504.44 489.848,506.44 490.5,510.5C 488.5,510.5 486.5,510.5 484.5,510.5C 485.06,506.807 485.727,503.14 486.5,499.5C 486.833,496.833 487.167,494.167 487.5,491.5C 489.5,491.5 491.5,491.5 493.5,491.5C 493.326,493.861 492.993,496.194 492.5,498.5C 494.167,498.5 495.833,498.5 497.5,498.5C 497.198,495.941 497.532,493.607 498.5,491.5 Z"/></g>
<g><path style="opacity:1" fill="#0c0c0c" d="M 527.5,491.5 C 529.167,491.5 530.833,491.5 532.5,491.5C 532.5,492.5 532.5,493.5 532.5,494.5C 532.5,494.833 532.5,495.167 532.5,495.5C 532.5,496.5 532.5,497.5 532.5,498.5C 535.518,498.335 538.518,498.502 541.5,499C 537.689,498.917 534.355,499.75 531.5,501.5C 531.5,501.833 531.5,502.167 531.5,502.5C 530.532,504.607 530.198,506.941 530.5,509.5C 528.712,510.622 526.712,510.789 524.5,510C 521.601,502.556 519.935,502.723 519.5,510.5C 517.5,510.5 515.5,510.5 513.5,510.5C 514.284,504.461 515.284,498.461 516.5,492.5C 518.364,491.207 520.364,491.207 522.5,492.5C 523.333,494.167 524.167,495.833 525,497.5C 525.845,495.389 526.678,493.389 527.5,491.5 Z"/></g>
<g><path style="opacity:1" fill="#d8d8d8" d="M 527.5,491.5 C 529.607,490.532 531.941,490.198 534.5,490.5C 538.276,492.636 542.276,492.969 546.5,491.5C 546.833,491.5 547.167,491.5 547.5,491.5C 542.487,497.287 541.487,503.62 544.5,510.5C 539.797,510.563 535.13,510.229 530.5,509.5C 530.198,506.941 530.532,504.607 531.5,502.5C 534.852,503.553 538.185,503.553 541.5,502.5C 538.232,501.513 534.898,501.18 531.5,501.5C 534.355,499.75 537.689,498.917 541.5,499C 538.518,498.502 535.518,498.335 532.5,498.5C 532.5,497.5 532.5,496.5 532.5,495.5C 534.848,495.67 537.182,496.003 539.5,496.5C 541.067,496.523 542.4,496.023 543.5,495C 539.848,494.501 536.182,494.335 532.5,494.5C 532.5,493.5 532.5,492.5 532.5,491.5C 530.833,491.5 529.167,491.5 527.5,491.5 Z"/></g>
<g><path style="opacity:1" fill="#0f0f0f" d="M 547.5,491.5 C 548.167,491.5 548.833,491.5 549.5,491.5C 552.5,491.5 555.5,491.5 558.5,491.5C 558.953,492.458 559.619,493.292 560.5,494C 564.152,494.499 567.818,494.665 571.5,494.5C 571.38,495.586 570.713,496.253 569.5,496.5C 566.551,495.698 563.551,495.364 560.5,495.5C 560.5,496.5 560.5,497.5 560.5,498.5C 563.85,498.335 567.183,498.502 570.5,499C 566.689,498.917 563.355,499.75 560.5,501.5C 560.167,502.167 559.833,502.833 559.5,503.5C 562.355,505.25 565.689,506.083 569.5,506C 565.833,506.333 562.167,506.667 558.5,507C 557.748,507.671 557.414,508.504 557.5,509.5C 553.238,511.446 548.904,511.779 544.5,510.5C 541.487,503.62 542.487,497.287 547.5,491.5 Z"/></g>
<g><path style="opacity:1" fill="#060606" d="M 578.5,501.5 C 578.5,501.833 578.5,502.167 578.5,502.5C 577.596,503.209 577.263,504.209 577.5,505.5C 581.846,505.334 586.179,505.501 590.5,506C 588.19,506.497 585.857,506.663 583.5,506.5C 582.596,507.209 582.263,508.209 582.5,509.5C 582.5,509.833 582.5,510.167 582.5,510.5C 578.5,510.5 574.5,510.5 570.5,510.5C 571.384,505.196 572.051,499.863 572.5,494.5C 573.404,493.791 573.737,492.791 573.5,491.5C 575.5,491.5 577.5,491.5 579.5,491.5C 579.167,494.833 578.833,498.167 578.5,501.5 Z"/></g>
<g><path style="opacity:1" fill="#111111" d="M 609.5,494.5 C 609.5,497.167 609.5,499.833 609.5,502.5C 609.5,503.5 609.5,504.5 609.5,505.5C 612.518,505.335 615.518,505.502 618.5,506C 614.789,506.175 611.122,506.675 607.5,507.5C 603.033,511.743 598.033,512.41 592.5,509.5C 591.304,503.477 592.304,497.81 595.5,492.5C 599.427,490.233 603.427,490.066 607.5,492C 608.381,492.708 609.047,493.542 609.5,494.5 Z"/></g>
<g><path style="opacity:1" fill="#0f0f0f" d="M 636.5,493.5 C 635.662,493.842 635.328,494.508 635.5,495.5C 632.772,496.205 629.939,496.872 627,497.5C 626.498,500.513 625.998,503.513 625.5,506.5C 626.833,506.5 628.167,506.5 629.5,506.5C 629.007,504.194 628.674,501.861 628.5,499.5C 631.698,498.964 634.365,499.631 636.5,501.5C 636.5,501.833 636.5,502.167 636.5,502.5C 635.596,503.209 635.263,504.209 635.5,505.5C 639.555,505.176 643.555,505.509 647.5,506.5C 643.599,506.858 639.599,506.858 635.5,506.5C 634.596,507.209 634.263,508.209 634.5,509.5C 621.7,514.374 617.034,510.04 620.5,496.5C 621.488,495.205 622.488,493.872 623.5,492.5C 630.45,491.407 637.45,491.24 644.5,492C 641.635,492.183 638.969,492.683 636.5,493.5 Z"/></g>
<g><path style="opacity:1" fill="#070707" d="M 656.5,491.5 C 658.735,491.205 660.735,491.539 662.5,492.5C 658.42,497.901 655.753,503.901 654.5,510.5C 651.918,510.975 649.918,510.308 648.5,508.5C 648.5,506.5 648.5,504.5 648.5,502.5C 648.737,501.209 648.404,500.209 647.5,499.5C 647.5,498.5 647.5,497.5 647.5,496.5C 647.672,495.508 647.338,494.842 646.5,494.5C 646.5,493.5 646.5,492.5 646.5,491.5C 648.5,491.5 650.5,491.5 652.5,491.5C 652.804,499.135 654.137,499.135 656.5,491.5 Z"/></g>
<g><path style="opacity:1" fill="#0a0a0a" d="M 703.5,491.5 C 706.082,491.025 708.082,491.692 709.5,493.5C 709.5,493.833 709.5,494.167 709.5,494.5C 709.5,494.833 709.5,495.167 709.5,495.5C 709.5,496.5 709.5,497.5 709.5,498.5C 712.85,498.335 716.183,498.502 719.5,499C 715.367,498.906 711.701,499.74 708.5,501.5C 708.5,501.833 708.5,502.167 708.5,502.5C 707.596,503.209 707.263,504.209 707.5,505.5C 711.182,505.335 714.848,505.501 718.5,506C 714.644,506.177 710.977,506.677 707.5,507.5C 706.596,508.209 706.263,509.209 706.5,510.5C 704.5,510.5 702.5,510.5 700.5,510.5C 701.059,506.147 701.725,501.814 702.5,497.5C 703.15,495.565 703.483,493.565 703.5,491.5 Z"/></g>
<g><path style="opacity:1" fill="#0e0e0e" d="M 735.5,491.5 C 738.385,491.194 741.052,491.527 743.5,492.5C 746.403,494.104 749.737,495.104 753.5,495.5C 750.26,495.976 746.927,495.976 743.5,495.5C 743.5,496.5 743.5,497.5 743.5,498.5C 746.518,498.335 749.518,498.502 752.5,499C 748.689,498.917 745.355,499.75 742.5,501.5C 741.314,502.961 741.314,504.295 742.5,505.5C 745.572,505.183 748.572,505.516 751.5,506.5C 748.26,506.976 744.927,506.976 741.5,506.5C 741.5,507.833 741.5,509.167 741.5,510.5C 739.5,510.5 737.5,510.5 735.5,510.5C 735.662,508.473 735.495,506.473 735,504.5C 734.487,505.527 733.987,506.527 733.5,507.5C 732.32,509.913 730.32,510.913 727.5,510.5C 727.808,508.076 727.474,505.743 726.5,503.5C 725.614,504.325 725.281,505.325 725.5,506.5C 725.5,507.833 725.5,509.167 725.5,510.5C 723.167,510.5 720.833,510.5 718.5,510.5C 718.833,508.5 719.167,506.5 719.5,504.5C 720.338,504.158 720.672,503.492 720.5,502.5C 721.273,498.86 721.94,495.193 722.5,491.5C 725.5,491.5 728.5,491.5 731.5,491.5C 731.336,494.187 731.503,496.854 732,499.5C 733.076,496.763 734.243,494.096 735.5,491.5 Z"/></g>
<g><path style="opacity:1" fill="#101010" d="M 755.5,491.5 C 760.511,491.334 765.511,491.501 770.5,492C 767.008,491.93 764.008,492.763 761.5,494.5C 761.5,494.833 761.5,495.167 761.5,495.5C 760.539,497.265 760.205,499.265 760.5,501.5C 760.5,501.833 760.5,502.167 760.5,502.5C 759.596,503.209 759.263,504.209 759.5,505.5C 763.884,505.174 768.217,505.508 772.5,506.5C 768.266,506.818 763.933,506.818 759.5,506.5C 758.566,507.568 758.232,508.901 758.5,510.5C 756.5,510.5 754.5,510.5 752.5,510.5C 753.167,505.167 753.833,499.833 754.5,494.5C 755.404,493.791 755.737,492.791 755.5,491.5 Z"/></g>
<g><path style="opacity:1" fill="#0f0f0f" d="M 772.5,491.5 C 780.174,491.334 787.841,491.5 795.5,492C 784.423,492.646 784.09,493.812 794.5,495.5C 793.5,495.833 792.5,496.167 791.5,496.5C 788.235,495.765 784.902,495.765 781.5,496.5C 781.5,498.167 781.5,499.833 781.5,501.5C 781.5,501.833 781.5,502.167 781.5,502.5C 780.596,503.209 780.263,504.209 780.5,505.5C 784.5,505.5 788.5,505.5 792.5,505.5C 791.791,506.404 790.791,506.737 789.5,506.5C 786.5,506.5 783.5,506.5 780.5,506.5C 779.596,507.209 779.263,508.209 779.5,509.5C 777.5,510.833 775.5,510.833 773.5,509.5C 774.167,505.167 774.833,500.833 775.5,496.5C 774.167,496.5 772.833,496.5 771.5,496.5C 771.629,494.784 771.962,493.117 772.5,491.5 Z"/></g>
<g><path style="opacity:1" fill="#080808" d="M 797.5,491.5 C 801.702,491.183 805.702,491.517 809.5,492.5C 809.5,492.833 809.5,493.167 809.5,493.5C 808.662,493.842 808.328,494.508 808.5,495.5C 805.954,495.982 803.621,496.982 801.5,498.5C 803.631,499.169 805.631,499.835 807.5,500.5C 806.662,500.842 806.328,501.508 806.5,502.5C 804.023,502.051 802.023,502.717 800.5,504.5C 806.167,505.167 811.833,505.833 817.5,506.5C 814.26,506.976 810.927,506.976 807.5,506.5C 807.567,507.959 807.234,509.292 806.5,510.5C 802.5,510.5 798.5,510.5 794.5,510.5C 794.5,509.167 794.5,507.833 794.5,506.5C 795.139,501.304 796.139,496.304 797.5,491.5 Z"/></g>
<g><path style="opacity:1" fill="#080808" d="M 829.5,510.5 C 825.833,510.5 822.167,510.5 818.5,510.5C 819.058,505.484 819.725,500.484 820.5,495.5C 821.404,494.791 821.737,493.791 821.5,492.5C 835.949,488.45 840.449,493.45 835,507.5C 833.512,509.16 831.679,510.16 829.5,510.5 Z"/></g>
<g><path style="opacity:1" fill="#fdfdfd" d="M 247.5,494.5 C 247.5,494.833 247.5,495.167 247.5,495.5C 243.936,494.577 240.269,494.244 236.5,494.5C 237.694,493.223 239.36,492.556 241.5,492.5C 243.167,492.667 244.833,492.833 246.5,493C 247.056,493.383 247.389,493.883 247.5,494.5 Z"/></g>
<g><path style="opacity:1" fill="#545454" d="M 180.5,494.5 C 180.5,495.167 180.5,495.833 180.5,496.5C 161.89,495.175 161.89,494.509 180.5,494.5 Z"/></g>
<g><path style="opacity:1" fill="#5c5c5c" d="M 207.5,495.5 C 207.5,495.167 207.5,494.833 207.5,494.5C 211.6,494.237 215.6,494.57 219.5,495.5C 219.672,496.492 219.338,497.158 218.5,497.5C 215.003,496.598 211.337,495.931 207.5,495.5 Z"/></g>
<g><path style="opacity:1" fill="#595959" d="M 235.5,495.5 C 235.5,495.167 235.5,494.833 235.5,494.5C 235.833,494.5 236.167,494.5 236.5,494.5C 240.269,494.244 243.936,494.577 247.5,495.5C 247.672,496.492 247.338,497.158 246.5,497.5C 243.003,496.598 239.337,495.931 235.5,495.5 Z"/></g>
<g><path style="opacity:1" fill="#4b4b4b" d="M 261.5,495.5 C 261.5,495.167 261.5,494.833 261.5,494.5C 265.226,494.177 268.893,494.511 272.5,495.5C 268.88,496.293 265.213,496.293 261.5,495.5 Z"/></g>
<g><path style="opacity:1" fill="#4b4b4b" d="M 288.5,495.5 C 288.5,495.167 288.5,494.833 288.5,494.5C 291.833,494.5 295.167,494.5 298.5,494.5C 298.03,495.693 297.03,496.36 295.5,496.5C 293.182,496.003 290.848,495.67 288.5,495.5 Z"/></g>
<g><path style="opacity:1" fill="#555555" d="M 314.5,495.5 C 314.5,494.833 314.833,494.5 315.5,494.5C 320.294,493.903 324.627,494.57 328.5,496.5C 323.848,496.002 319.181,495.669 314.5,495.5 Z"/></g>
<g><path style="opacity:1" fill="#505050" d="M 340.5,494.5 C 344.884,494.174 349.217,494.508 353.5,495.5C 349.521,496.505 345.521,496.505 341.5,495.5C 341.5,496.5 341.5,497.5 341.5,498.5C 345.226,498.177 348.893,498.511 352.5,499.5C 350.082,500.29 347.582,500.29 345,499.5C 343.319,499.608 342.152,500.275 341.5,501.5C 340.532,499.393 340.198,497.059 340.5,494.5 Z"/></g>
<g><path style="opacity:1" fill="#4d4d4d" d="M 402.5,495.5 C 406.683,494.189 411.016,494.189 415.5,495.5C 411.226,496.088 406.892,496.088 402.5,495.5 Z"/></g>
<g><path style="opacity:1" fill="#626262" d="M 424.5,493.5 C 429.398,494.213 434.398,494.879 439.5,495.5C 439.672,496.492 439.338,497.158 438.5,497.5C 433.71,496.275 428.71,495.608 423.5,495.5C 423.328,494.508 423.662,493.842 424.5,493.5 Z"/></g>
<g><path style="opacity:1" fill="#464646" d="M 476.5,493.5 C 479.358,494.166 482.358,494.833 485.5,495.5C 482.205,496.401 478.872,496.401 475.5,495.5C 475.328,494.508 475.662,493.842 476.5,493.5 Z"/></g>
<g><path style="opacity:1" fill="#454545" d="M 504.5,492.5 C 507.403,494.104 510.737,495.104 514.5,495.5C 510.93,495.909 507.264,495.909 503.5,495.5C 503.263,494.209 503.596,493.209 504.5,492.5 Z"/></g>
<g><path style="opacity:1" fill="#5f5f5f" d="M 532.5,495.5 C 532.5,495.167 532.5,494.833 532.5,494.5C 536.182,494.335 539.848,494.501 543.5,495C 542.4,496.023 541.067,496.523 539.5,496.5C 537.182,496.003 534.848,495.67 532.5,495.5 Z"/></g>
<g><path style="opacity:1" fill="#575757" d="M 583.5,495.5 C 586.355,494.197 589.355,494.197 592.5,495.5C 589.527,496.509 586.527,496.509 583.5,495.5 Z"/></g>
<g><path style="opacity:1" fill="#545454" d="M 636.5,493.5 C 639.563,494.201 642.73,494.868 646,495.5C 646.399,495.272 646.565,494.938 646.5,494.5C 647.338,494.842 647.672,495.508 647.5,496.5C 643.452,496.605 639.452,496.272 635.5,495.5C 635.328,494.508 635.662,493.842 636.5,493.5 Z"/></g>
<g><path style="opacity:1" fill="#525252" d="M 667.5,495.5 C 671.019,494.192 674.685,494.192 678.5,495.5C 674.845,496.586 671.178,496.586 667.5,495.5 Z"/></g>
<g><path style="opacity:1" fill="#535353" d="M 687.5,491.5 C 687.5,492.5 687.5,493.5 687.5,494.5C 692.214,494.173 696.88,494.507 701.5,495.5C 696.601,495.761 691.601,495.761 686.5,495.5C 686.232,493.901 686.566,492.568 687.5,491.5 Z"/></g>
<g><path style="opacity:1" fill="#494949" d="M 709.5,495.5 C 709.5,495.167 709.5,494.833 709.5,494.5C 713.226,494.177 716.893,494.511 720.5,495.5C 716.88,496.293 713.213,496.293 709.5,495.5 Z"/></g>
<g><path style="opacity:1" fill="#535353" d="M 761.5,495.5 C 761.5,495.167 761.5,494.833 761.5,494.5C 764.572,494.183 767.572,494.516 770.5,495.5C 767.463,496.741 764.463,496.741 761.5,495.5 Z"/></g>
<g><path style="opacity:1" fill="#414141" d="M 809.5,493.5 C 812.689,494.166 816.023,494.833 819.5,495.5C 815.93,495.909 812.264,495.909 808.5,495.5C 808.328,494.508 808.662,493.842 809.5,493.5 Z"/></g>
<g><path style="opacity:1" fill="#ececec" d="M 207.5,495.5 C 211.337,495.931 215.003,496.598 218.5,497.5C 218.5,498.833 218.5,500.167 218.5,501.5C 214.5,501.5 210.5,501.5 206.5,501.5C 209.701,499.74 213.367,498.906 217.5,499C 214.183,498.502 210.85,498.335 207.5,498.5C 207.5,497.5 207.5,496.5 207.5,495.5 Z"/></g>
<g><path style="opacity:1" fill="#d2d2d2" d="M 314.5,495.5 C 319.181,495.669 323.848,496.002 328.5,496.5C 328.293,499.241 327.293,501.574 325.5,503.5C 321.087,501.862 316.421,500.862 311.5,500.5C 312.11,498.566 313.11,496.899 314.5,495.5 Z"/></g>
<g><path style="opacity:1" fill="#d7d7d7" d="M 464.5,493.5 C 462.647,496.208 461.647,499.208 461.5,502.5C 457.936,501.577 454.269,501.244 450.5,501.5C 448.975,499.964 446.975,498.964 444.5,498.5C 444.709,497.914 445.043,497.414 445.5,497C 450.877,495.706 456.21,495.206 461.5,495.5C 458.061,495.094 455.061,494.094 452.5,492.5C 453.265,492.077 454.098,491.743 455,491.5C 458.324,492.05 461.491,492.717 464.5,493.5 Z"/></g>
<g><path style="opacity:1" fill="#d9d9d9" d="M 504.5,492.5 C 508.167,492.5 511.833,492.5 515.5,492.5C 515.833,492.5 516.167,492.5 516.5,492.5C 515.284,498.461 514.284,504.461 513.5,510.5C 515.5,510.5 517.5,510.5 519.5,510.5C 513.67,511.334 507.67,511.334 501.5,510.5C 501.5,509.167 501.5,507.833 501.5,506.5C 505.182,506.665 508.848,506.499 512.5,506C 509.183,505.502 505.85,505.335 502.5,505.5C 502.5,504.5 502.5,503.5 502.5,502.5C 506.178,503.586 509.845,503.586 513.5,502.5C 509.737,502.104 506.403,501.104 503.5,499.5C 516.833,499.167 516.833,498.833 503.5,498.5C 503.5,497.5 503.5,496.5 503.5,495.5C 507.264,495.909 510.93,495.909 514.5,495.5C 510.737,495.104 507.403,494.104 504.5,492.5 Z"/></g>
<g><path style="opacity:1" fill="#dbdbdb" d="M 743.5,492.5 C 747.489,492.116 751.155,492.783 754.5,494.5C 753.833,499.833 753.167,505.167 752.5,510.5C 754.5,510.5 756.5,510.5 758.5,510.5C 753,511.4 747.333,511.4 741.5,510.5C 741.5,509.167 741.5,507.833 741.5,506.5C 744.927,506.976 748.26,506.976 751.5,506.5C 748.572,505.516 745.572,505.183 742.5,505.5C 745.403,503.896 748.737,502.896 752.5,502.5C 749.232,501.513 745.898,501.18 742.5,501.5C 745.355,499.75 748.689,498.917 752.5,499C 749.518,498.502 746.518,498.335 743.5,498.5C 743.5,497.5 743.5,496.5 743.5,495.5C 746.927,495.976 750.26,495.976 753.5,495.5C 749.737,495.104 746.403,494.104 743.5,492.5 Z"/></g>
<g><path style="opacity:1" fill="#d0d0d0" d="M 809.5,492.5 C 812.187,492.336 814.854,492.503 817.5,493C 819.119,493.236 820.119,494.069 820.5,495.5C 819.725,500.484 819.058,505.484 818.5,510.5C 822.167,510.5 825.833,510.5 829.5,510.5C 821.996,511.499 814.329,511.499 806.5,510.5C 807.234,509.292 807.567,507.959 807.5,506.5C 810.927,506.976 814.26,506.976 817.5,506.5C 811.833,505.833 806.167,505.167 800.5,504.5C 802.023,502.717 804.023,502.051 806.5,502.5C 810.507,503.613 814.507,503.613 818.5,502.5C 814.687,501.833 811.021,501.166 807.5,500.5C 805.631,499.835 803.631,499.169 801.5,498.5C 803.621,496.982 805.954,495.982 808.5,495.5C 812.264,495.909 815.93,495.909 819.5,495.5C 816.023,494.833 812.689,494.166 809.5,493.5C 809.5,493.167 809.5,492.833 809.5,492.5 Z"/></g>
<g><path style="opacity:1" fill="#cccccc" d="M 635.5,495.5 C 639.452,496.272 643.452,496.605 647.5,496.5C 647.5,497.5 647.5,498.5 647.5,499.5C 644.316,501.414 640.649,502.08 636.5,501.5C 634.365,499.631 631.698,498.964 628.5,499.5C 628.674,501.861 629.007,504.194 629.5,506.5C 628.167,506.5 626.833,506.5 625.5,506.5C 625.998,503.513 626.498,500.513 627,497.5C 629.939,496.872 632.772,496.205 635.5,495.5 Z"/></g>
<g><path style="opacity:1" fill="#d2d2d2" d="M 772.5,491.5 C 780.65,490.507 788.983,490.174 797.5,490.5C 797.5,490.833 797.5,491.167 797.5,491.5C 796.139,496.304 795.139,501.304 794.5,506.5C 793.833,506.167 793.167,505.833 792.5,505.5C 788.5,505.5 784.5,505.5 780.5,505.5C 780.263,504.209 780.596,503.209 781.5,502.5C 785.507,503.613 789.507,503.613 793.5,502.5C 789.555,501.509 785.555,501.176 781.5,501.5C 781.5,499.833 781.5,498.167 781.5,496.5C 784.902,495.765 788.235,495.765 791.5,496.5C 792.5,496.167 793.5,495.833 794.5,495.5C 784.09,493.812 784.423,492.646 795.5,492C 787.841,491.5 780.174,491.334 772.5,491.5 Z"/></g>
<g><path style="opacity:1" fill="#b6b6b6" d="M 360.5,496.5 C 361.5,496.5 362.5,496.5 363.5,496.5C 363.752,499.932 362.419,500.932 359.5,499.5C 360.127,498.583 360.461,497.583 360.5,496.5 Z"/></g>
<g><path style="opacity:1" fill="#e5e5e5" d="M 826.5,496.5 C 827.833,496.5 829.167,496.5 830.5,496.5C 830.664,499.187 830.497,501.854 830,504.5C 828.644,505.38 827.144,505.714 825.5,505.5C 825.508,502.455 825.841,499.455 826.5,496.5 Z"/></g>
<g><path style="opacity:1" fill="#dadada" d="M 334.5,497.5 C 335.451,498.919 335.784,500.585 335.5,502.5C 334.448,502.649 333.448,502.483 332.5,502C 333.267,500.53 333.933,499.03 334.5,497.5 Z"/></g>
<g><path style="opacity:1" fill="#020202" d="M 398.5,495.5 C 396.466,500.553 395.633,505.553 396,510.5C 402.792,511.465 409.625,512.465 416.5,513.5C 406.766,536.376 397.433,559.376 388.5,582.5C 375.5,582.5 362.5,582.5 349.5,582.5C 348.072,561.844 346.739,541.177 345.5,520.5C 345.5,517.833 345.5,515.167 345.5,512.5C 360.17,512.667 374.837,512.5 389.5,512C 390.861,507.638 391.528,503.138 391.5,498.5C 394.86,499.21 396.693,497.876 397,494.5C 397.383,495.056 397.883,495.389 398.5,495.5 Z"/></g>
<g><path style="opacity:1" fill="#d0d0d0" d="M 475.5,496.5 C 479.292,496.993 482.958,497.993 486.5,499.5C 485.727,503.14 485.06,506.807 484.5,510.5C 486.5,510.5 488.5,510.5 490.5,510.5C 485.006,511.279 479.339,511.279 473.5,510.5C 473.5,509.167 473.5,507.833 473.5,506.5C 476.85,506.665 480.183,506.498 483.5,506C 478.177,505.501 472.844,505.334 467.5,505.5C 466.436,498.857 469.102,495.857 475.5,496.5 Z"/></g>
<g><path style="opacity:1" fill="#d4d4d4" d="M 262.5,491.5 C 266.735,492.436 271.069,492.769 275.5,492.5C 273.977,495.63 273.311,498.963 273.5,502.5C 269.265,501.564 264.931,501.231 260.5,501.5C 260.586,500.504 260.252,499.671 259.5,499C 257.392,498.64 255.392,497.973 253.5,497C 256.254,496.728 258.921,496.228 261.5,495.5C 265.213,496.293 268.88,496.293 272.5,495.5C 268.893,494.511 265.226,494.177 261.5,494.5C 261.557,493.391 261.89,492.391 262.5,491.5 Z"/></g>
<g><path style="opacity:1" fill="#e5e5e5" d="M 550.5,496.5 C 551.833,496.5 553.167,496.5 554.5,496.5C 554.067,499.166 553.567,501.832 553,504.5C 551.644,505.38 550.144,505.714 548.5,505.5C 548.7,502.37 549.366,499.37 550.5,496.5 Z"/></g>
<g><path style="opacity:1" fill="#727272" d="M 179.5,503.5 C 174.434,503.66 169.434,503.16 164.5,502C 167,501.833 169.5,501.667 172,501.5C 174.929,501.525 177.429,502.191 179.5,503.5 Z"/></g>
<g><path style="opacity:1" fill="#6c6c6c" d="M 206.5,502.5 C 206.5,502.167 206.5,501.833 206.5,501.5C 210.5,501.5 214.5,501.5 218.5,501.5C 218.5,503.833 218.5,506.167 218.5,508.5C 217.549,507.081 217.216,505.415 217.5,503.5C 213.731,503.756 210.064,503.423 206.5,502.5 Z"/></g>
<g><path style="opacity:1" fill="#6f6f6f" d="M 234.5,502.5 C 234.5,502.167 234.5,501.833 234.5,501.5C 238.703,501.076 242.703,501.576 246.5,503C 242.463,503.607 238.463,503.44 234.5,502.5 Z"/></g>
<g><path style="opacity:1" fill="#555555" d="M 260.5,501.5 C 264.931,501.231 269.265,501.564 273.5,502.5C 269.648,503.644 265.648,503.644 261.5,502.5C 261.5,503.5 261.5,504.5 261.5,505.5C 264.85,505.335 268.183,505.502 271.5,506C 267.848,506.499 264.182,506.665 260.5,506.5C 260.5,504.833 260.5,503.167 260.5,501.5 Z"/></g>
<g><path style="opacity:1" fill="#6a6a6a" d="M 287.5,501.5 C 290.898,501.18 294.232,501.513 297.5,502.5C 294.061,502.906 291.061,503.906 288.5,505.5C 287.566,504.432 287.232,503.099 287.5,501.5 Z"/></g>
<g><path style="opacity:1" fill="#707070" d="M 311.5,500.5 C 316.421,500.862 321.087,501.862 325.5,503.5C 320.819,503.331 316.152,502.998 311.5,502.5C 310.167,501.833 310.167,501.167 311.5,500.5 Z"/></g>
<g><path style="opacity:1" fill="#6e6e6e" d="M 341.5,502.5 C 341.5,502.167 341.5,501.833 341.5,501.5C 345.6,501.237 349.6,501.57 353.5,502.5C 353.672,503.492 353.338,504.158 352.5,504.5C 348.979,503.693 345.312,503.026 341.5,502.5 Z"/></g>
<g><path style="opacity:1" fill="#666666" d="M 369.5,500.5 C 373.353,501.166 377.353,501.833 381.5,502.5C 377.208,503.274 372.875,503.274 368.5,502.5C 368.328,501.508 368.662,500.842 369.5,500.5 Z"/></g>
<g><path style="opacity:1" fill="#696969" d="M 401.5,502.5 C 405.683,501.189 410.016,501.189 414.5,502.5C 410.194,503.423 405.861,503.423 401.5,502.5 Z"/></g>
<g><path style="opacity:1" fill="#6c6c6c" d="M 423.5,498.5 C 423.5,499.5 423.5,500.5 423.5,501.5C 427.884,501.174 432.217,501.508 436.5,502.5C 431.88,503.18 427.213,503.18 422.5,502.5C 422.232,500.901 422.566,499.568 423.5,498.5 Z"/></g>
<g><path style="opacity:1" fill="#7e7e7e" d="M 450.5,502.5 C 450.5,502.167 450.5,501.833 450.5,501.5C 454.269,501.244 457.936,501.577 461.5,502.5C 461.5,504.167 461.5,505.833 461.5,507.5C 459.901,507.768 458.568,507.434 457.5,506.5C 458.492,506.672 459.158,506.338 459.5,505.5C 460.043,505.44 460.376,505.107 460.5,504.5C 457.179,503.67 453.846,503.003 450.5,502.5 Z"/></g>
<g><path style="opacity:1" fill="#696969" d="M 471.5,502.5 C 475.683,501.189 480.016,501.189 484.5,502.5C 480.194,503.423 475.861,503.423 471.5,502.5 Z"/></g>
<g><path style="opacity:1" fill="#6a6a6a" d="M 503.5,499.5 C 506.403,501.104 509.737,502.104 513.5,502.5C 509.845,503.586 506.178,503.586 502.5,502.5C 502.263,501.209 502.596,500.209 503.5,499.5 Z"/></g>
<g><path style="opacity:1" fill="#6d6d6d" d="M 531.5,502.5 C 531.5,502.167 531.5,501.833 531.5,501.5C 534.898,501.18 538.232,501.513 541.5,502.5C 538.185,503.553 534.852,503.553 531.5,502.5 Z"/></g>
<g><path style="opacity:1" fill="#6d6d6d" d="M 560.5,501.5 C 563.898,501.18 567.232,501.513 570.5,502.5C 566.893,503.489 563.226,503.823 559.5,503.5C 559.833,502.833 560.167,502.167 560.5,501.5 Z"/></g>
<g><path style="opacity:1" fill="#747474" d="M 578.5,502.5 C 578.5,502.167 578.5,501.833 578.5,501.5C 582.555,501.176 586.555,501.509 590.5,502.5C 586.521,503.505 582.521,503.505 578.5,502.5 Z"/></g>
<g><path style="opacity:1" fill="#616161" d="M 609.5,494.5 C 613.649,493.92 617.316,494.586 620.5,496.5C 617.167,496.167 613.833,495.833 610.5,495.5C 610.5,496.5 610.5,497.5 610.5,498.5C 622.427,498.512 622.427,499.179 610.5,500.5C 613.167,501.167 615.833,501.833 618.5,502.5C 615.463,503.741 612.463,503.741 609.5,502.5C 609.5,499.833 609.5,497.167 609.5,494.5 Z"/></g>
<g><path style="opacity:1" fill="#6e6e6e" d="M 647.5,499.5 C 648.404,500.209 648.737,501.209 648.5,502.5C 644.548,503.678 640.548,503.678 636.5,502.5C 636.5,502.167 636.5,501.833 636.5,501.5C 640.649,502.08 644.316,501.414 647.5,499.5 Z"/></g>
<g><path style="opacity:1" fill="#737373" d="M 678.5,502.5 C 678.768,504.099 678.434,505.432 677.5,506.5C 677.5,505.5 677.5,504.5 677.5,503.5C 672.434,503.66 667.434,503.16 662.5,502C 667.917,501.219 673.25,501.385 678.5,502.5 Z"/></g>
<g><path style="opacity:1" fill="#6f6f6f" d="M 708.5,502.5 C 708.5,502.167 708.5,501.833 708.5,501.5C 712.6,501.237 716.6,501.57 720.5,502.5C 720.672,503.492 720.338,504.158 719.5,504.5C 715.939,503.77 712.273,503.103 708.5,502.5 Z"/></g>
<g><path style="opacity:1" fill="#6d6d6d" d="M 742.5,501.5 C 745.898,501.18 749.232,501.513 752.5,502.5C 748.737,502.896 745.403,503.896 742.5,505.5C 741.314,504.295 741.314,502.961 742.5,501.5 Z"/></g>
<g><path style="opacity:1" fill="#696969" d="M 760.5,502.5 C 760.5,502.167 760.5,501.833 760.5,501.5C 764.884,501.174 769.217,501.508 773.5,502.5C 769.194,503.423 764.861,503.423 760.5,502.5 Z"/></g>
<g><path style="opacity:1" fill="#6c6c6c" d="M 781.5,502.5 C 781.5,502.167 781.5,501.833 781.5,501.5C 785.555,501.176 789.555,501.509 793.5,502.5C 789.507,503.613 785.507,503.613 781.5,502.5 Z"/></g>
<g><path style="opacity:1" fill="#666666" d="M 807.5,500.5 C 811.021,501.166 814.687,501.833 818.5,502.5C 814.507,503.613 810.507,503.613 806.5,502.5C 806.328,501.508 806.662,500.842 807.5,500.5 Z"/></g>
<g><path style="opacity:1" fill="#f3f3f3" d="M 273.5,502.5 C 275.951,503.894 278.618,504.728 281.5,505C 278.518,505.498 275.518,505.665 272.5,505.5C 272.567,506.959 272.234,508.292 271.5,509.5C 267.727,508.897 264.061,508.23 260.5,507.5C 260.5,507.167 260.5,506.833 260.5,506.5C 264.182,506.665 267.848,506.499 271.5,506C 268.183,505.502 264.85,505.335 261.5,505.5C 261.5,504.5 261.5,503.5 261.5,502.5C 265.648,503.644 269.648,503.644 273.5,502.5 Z"/></g>
<g><path style="opacity:1" fill="#d7d7d7" d="M 378.5,494.5 C 379.167,494.5 379.833,494.5 380.5,494.5C 380.821,496.048 381.821,496.715 383.5,496.5C 383.369,500.952 382.702,505.286 381.5,509.5C 381.167,509.5 380.833,509.5 380.5,509.5C 376.366,508.515 372.032,508.182 367.5,508.5C 371.727,506.72 376.394,505.886 381.5,506C 376.467,505.829 371.467,505.329 366.5,504.5C 366.855,503.478 367.522,502.811 368.5,502.5C 372.875,503.274 377.208,503.274 381.5,502.5C 377.353,501.833 373.353,501.166 369.5,500.5C 369.5,498.833 369.5,497.167 369.5,495.5C 371.488,495.827 373.488,496.16 375.5,496.5C 377.03,496.36 378.03,495.693 378.5,494.5 Z"/></g>
<g><path style="opacity:1" fill="#dedede" d="M 599.5,496.5 C 600.833,496.5 602.167,496.5 603.5,496.5C 603.037,499.482 602.704,502.482 602.5,505.5C 601.167,505.5 599.833,505.5 598.5,505.5C 598.368,502.43 598.701,499.43 599.5,496.5 Z"/></g>
<g><path style="opacity:1" fill="#cfcfcf" d="M 686.5,497.5 C 691.833,497.5 697.167,497.5 702.5,497.5C 701.725,501.814 701.059,506.147 700.5,510.5C 702.5,510.5 704.5,510.5 706.5,510.5C 703.167,511.833 699.833,511.833 696.5,510.5C 696.589,509.339 694.922,509.006 691.5,509.5C 691.5,508.5 691.5,507.5 691.5,506.5C 694.187,506.664 696.854,506.497 699.5,506C 694.845,505.501 690.179,505.334 685.5,505.5C 685.279,502.721 685.612,500.054 686.5,497.5 Z"/></g>
<g><path style="opacity:1" fill="#696969" d="M 687.5,502.5 C 691.683,501.189 696.016,501.189 700.5,502.5C 696.194,503.423 691.861,503.423 687.5,502.5 Z"/></g>
<g><path style="opacity:1" fill="#eaeaea" d="M 450.5,502.5 C 453.846,503.003 457.179,503.67 460.5,504.5C 460.376,505.107 460.043,505.44 459.5,505.5C 454.125,505.828 448.792,505.495 443.5,504.5C 443.709,503.914 444.043,503.414 444.5,503C 446.473,502.505 448.473,502.338 450.5,502.5 Z"/></g>
<g><path style="opacity:1" fill="#dadada" d="M 571.5,494.5 C 571.833,494.5 572.167,494.5 572.5,494.5C 572.051,499.863 571.384,505.196 570.5,510.5C 574.5,510.5 578.5,510.5 582.5,510.5C 574.218,511.798 565.884,511.464 557.5,509.5C 557.414,508.504 557.748,507.671 558.5,507C 562.167,506.667 565.833,506.333 569.5,506C 565.689,506.083 562.355,505.25 559.5,503.5C 563.226,503.823 566.893,503.489 570.5,502.5C 567.232,501.513 563.898,501.18 560.5,501.5C 563.355,499.75 566.689,498.917 570.5,499C 567.183,498.502 563.85,498.335 560.5,498.5C 560.5,497.5 560.5,496.5 560.5,495.5C 563.551,495.364 566.551,495.698 569.5,496.5C 570.713,496.253 571.38,495.586 571.5,494.5 Z"/></g>
<g><path style="opacity:1" fill="#f6f6f6" d="M 636.5,502.5 C 640.548,503.678 644.548,503.678 648.5,502.5C 648.5,504.5 648.5,506.5 648.5,508.5C 643.706,509.097 639.373,508.43 635.5,506.5C 639.599,506.858 643.599,506.858 647.5,506.5C 643.555,505.509 639.555,505.176 635.5,505.5C 635.263,504.209 635.596,503.209 636.5,502.5 Z"/></g>
<g><path style="opacity:1" fill="#2e2e2e" d="M 400.5,506.5 C 404.683,505.189 409.016,505.189 413.5,506.5C 409.266,506.818 404.933,506.818 400.5,506.5 Z"/></g>
<g><path style="opacity:1" fill="#232323" d="M 665.5,506.5 C 669.019,505.192 672.685,505.192 676.5,506.5C 672.93,506.909 669.264,506.909 665.5,506.5 Z"/></g>
<g><path style="opacity:1" fill="#cecece" d="M 298.5,494.5 C 299.167,494.5 299.833,494.5 300.5,494.5C 299.608,499.515 298.608,504.515 297.5,509.5C 299.743,510.474 302.076,510.808 304.5,510.5C 304.585,502.652 305.251,502.652 306.5,510.5C 308.924,510.808 311.257,510.474 313.5,509.5C 313.167,508.833 312.833,508.167 312.5,507.5C 316.122,506.675 319.789,506.175 323.5,506C 319.514,505.501 315.514,505.334 311.5,505.5C 311.5,504.5 311.5,503.5 311.5,502.5C 316.152,502.998 320.819,503.331 325.5,503.5C 325.414,505.677 324.747,507.677 323.5,509.5C 325.396,510.466 327.396,510.799 329.5,510.5C 326.5,511.167 323.5,511.833 320.5,512.5C 310.167,512.5 299.833,512.5 289.5,512.5C 290.609,511.71 291.942,511.21 293.5,511C 290.518,510.502 287.518,510.335 284.5,510.5C 285.635,509.526 286.635,508.359 287.5,507C 290.5,506.667 293.5,506.333 296.5,506C 293.854,505.503 291.187,505.336 288.5,505.5C 291.061,503.906 294.061,502.906 297.5,502.5C 294.232,501.513 290.898,501.18 287.5,501.5C 285.791,499.187 283.457,497.687 280.5,497C 283.254,496.728 285.921,496.228 288.5,495.5C 290.848,495.67 293.182,496.003 295.5,496.5C 297.03,496.36 298.03,495.693 298.5,494.5 Z"/></g>
<g><path style="opacity:1" fill="#cecece" d="M 380.5,491.5 C 391.069,490.182 401.735,490.182 412.5,491.5C 412.5,492.167 412.5,492.833 412.5,493.5C 407.87,492.771 403.203,492.437 398.5,492.5C 398.5,493.5 398.5,494.5 398.5,495.5C 397.883,495.389 397.383,495.056 397,494.5C 396.693,497.876 394.86,499.21 391.5,498.5C 391.528,503.138 390.861,507.638 389.5,512C 374.837,512.5 360.17,512.667 345.5,512.5C 345.5,515.167 345.5,517.833 345.5,520.5C 344.523,517.713 344.19,514.713 344.5,511.5C 345.791,511.737 346.791,511.404 347.5,510.5C 348.552,510.649 349.552,510.483 350.5,510C 347.413,509.741 344.413,509.241 341.5,508.5C 344.355,506.75 347.689,505.917 351.5,506C 348.183,505.502 344.85,505.335 341.5,505.5C 341.5,504.5 341.5,503.5 341.5,502.5C 345.312,503.026 348.979,503.693 352.5,504.5C 352.5,506.5 352.5,508.5 352.5,510.5C 354.5,510.5 356.5,510.5 358.5,510.5C 358.971,504.004 359.971,504.004 361.5,510.5C 362.449,511.152 363.615,511.486 365,511.5C 370.338,511.02 375.505,510.353 380.5,509.5C 380.833,509.5 381.167,509.5 381.5,509.5C 383.607,510.468 385.941,510.802 388.5,510.5C 388.526,505.733 389.193,501.066 390.5,496.5C 391.833,496.5 393.167,496.5 394.5,496.5C 394.286,494.856 394.62,493.356 395.5,492C 390.511,491.501 385.511,491.334 380.5,491.5 Z"/></g>
<g><path style="opacity:1" fill="#888888" d="M 162.5,509.5 C 167.348,508.186 172.348,508.186 177.5,509.5C 172.497,510.666 167.497,510.666 162.5,509.5 Z"/></g>
<g><path style="opacity:1" fill="#848484" d="M 206.5,506.5 C 209.874,508.07 213.541,509.237 217.5,510C 213.446,510.694 209.446,510.527 205.5,509.5C 205.263,508.209 205.596,507.209 206.5,506.5 Z"/></g>
<g><path style="opacity:1" fill="#878787" d="M 233.5,506.5 C 236.403,508.104 239.737,509.104 243.5,509.5C 239.217,510.492 234.884,510.826 230.5,510.5C 231.512,509.128 232.512,507.795 233.5,506.5 Z"/></g>
<g><path style="opacity:1" fill="#848484" d="M 260.5,507.5 C 264.061,508.23 267.727,508.897 271.5,509.5C 271.5,509.833 271.5,510.167 271.5,510.5C 266.833,510.5 262.167,510.5 257.5,510.5C 258.5,509.5 259.5,508.5 260.5,507.5 Z"/></g>
<g><path style="opacity:1" fill="#838383" d="M 367.5,508.5 C 372.032,508.182 376.366,508.515 380.5,509.5C 375.505,510.353 370.338,511.02 365,511.5C 363.615,511.486 362.449,511.152 361.5,510.5C 364.082,510.975 366.082,510.308 367.5,508.5 Z"/></g>
<g><path style="opacity:1" fill="#8e8e8e" d="M 414.5,509.5 C 416.607,510.468 418.941,510.802 421.5,510.5C 413.905,511.603 406.238,511.103 398.5,509C 403.917,508.219 409.25,508.385 414.5,509.5 Z"/></g>
<g><path style="opacity:1" fill="#6d6d6d" d="M 422.5,504.5 C 426.982,505.326 431.649,505.826 436.5,506C 418.791,506.705 418.457,507.871 435.5,509.5C 430.833,510.651 426.166,510.651 421.5,509.5C 421.216,507.585 421.549,505.919 422.5,504.5 Z"/></g>
<g><path style="opacity:1" fill="#949494" d="M 450.5,509.5 C 450.5,509.167 450.5,508.833 450.5,508.5C 454.375,508.085 458.042,508.585 461.5,510C 457.797,510.579 454.131,510.412 450.5,509.5 Z"/></g>
<g><path style="opacity:1" fill="#939393" d="M 583.5,506.5 C 586.071,508.231 589.071,509.231 592.5,509.5C 589.269,510.782 585.936,510.782 582.5,509.5C 582.263,508.209 582.596,507.209 583.5,506.5 Z"/></g>
<g><path style="opacity:1" fill="#929292" d="M 609.5,509.5 C 612.687,508.194 616.02,508.194 619.5,509.5C 616.185,510.553 612.852,510.553 609.5,509.5 Z"/></g>
<g><path style="opacity:1" fill="#8a8a8a" d="M 635.5,506.5 C 639.373,508.43 643.706,509.097 648.5,508.5C 649.918,510.308 651.918,510.975 654.5,510.5C 647.924,511.517 641.257,511.184 634.5,509.5C 634.263,508.209 634.596,507.209 635.5,506.5 Z"/></g>
<g><path style="opacity:1" fill="#7c7c7c" d="M 707.5,507.5 C 710.689,508.166 714.023,508.833 717.5,509.5C 713.893,510.489 710.226,510.823 706.5,510.5C 706.263,509.209 706.596,508.209 707.5,507.5 Z"/></g>
<g><path style="opacity:1" fill="#878787" d="M 727.5,510.5 C 726.833,509.167 726.167,507.833 725.5,506.5C 725.281,505.325 725.614,504.325 726.5,503.5C 727.474,505.743 727.808,508.076 727.5,510.5 Z"/></g>
<g><path style="opacity:1" fill="#797979" d="M 780.5,506.5 C 784.5,507.833 788.5,509.167 792.5,510.5C 788.119,510.628 783.785,510.295 779.5,509.5C 779.263,508.209 779.596,507.209 780.5,506.5 Z"/></g>
<g><path style="opacity:1" fill="#919191" d="M 198.5,508.5 C 200.279,510.344 202.612,511.01 205.5,510.5C 203.052,511.473 200.385,511.806 197.5,511.5C 197.263,510.209 197.596,509.209 198.5,508.5 Z"/></g>
<g><path style="opacity:1" fill="#020202" d="M 289.5,512.5 C 299.833,512.5 310.167,512.5 320.5,512.5C 324.759,512.997 328.759,512.331 332.5,510.5C 334.958,511.919 337.625,512.919 340.5,513.5C 334.963,536.388 329.963,559.388 325.5,582.5C 307.821,582.833 290.154,582.5 272.5,581.5C 278.039,558.347 283.705,535.347 289.5,512.5 Z"/></g>
<g><path style="opacity:1" fill="#616161" d="M 341.5,508.5 C 344.413,509.241 347.413,509.741 350.5,510C 349.552,510.483 348.552,510.649 347.5,510.5C 343.333,511.405 339.333,511.405 335.5,510.5C 338.082,510.975 340.082,510.308 341.5,508.5 Z"/></g>
<g><path style="opacity:1" fill="#868686" d="M 437.5,507.5 C 437.5,508.5 437.5,509.5 437.5,510.5C 441.5,510.5 445.5,510.5 449.5,510.5C 445.366,511.485 441.032,511.818 436.5,511.5C 436.232,509.901 436.566,508.568 437.5,507.5 Z"/></g>
<g><path style="opacity:1" fill="#939393" d="M 495.5,507.5 C 495.5,508.5 495.5,509.5 495.5,510.5C 497.5,510.5 499.5,510.5 501.5,510.5C 499.393,511.468 497.059,511.802 494.5,511.5C 494.232,509.901 494.566,508.568 495.5,507.5 Z"/></g>
<g><path style="opacity:1" fill="#838383" d="M 677.5,508.5 C 681.715,510.436 686.381,511.103 691.5,510.5C 681.569,511.674 671.569,511.174 661.5,509C 666.823,508.501 672.156,508.334 677.5,508.5 Z"/></g>
<g><path style="opacity:1" fill="#969696" d="M 741.5,510.5 C 739.393,511.468 737.059,511.802 734.5,511.5C 734.768,509.901 734.434,508.568 733.5,507.5C 733.987,506.527 734.487,505.527 735,504.5C 735.495,506.473 735.662,508.473 735.5,510.5C 737.5,510.5 739.5,510.5 741.5,510.5 Z"/></g>
<g><path style="opacity:1" fill="#828282" d="M 792.5,505.5 C 793.167,505.833 793.833,506.167 794.5,506.5C 794.5,507.833 794.5,509.167 794.5,510.5C 798.5,510.5 802.5,510.5 806.5,510.5C 802.366,511.485 798.032,511.818 793.5,511.5C 793.5,510.167 793.5,508.833 793.5,507.5C 791.901,507.768 790.568,507.434 789.5,506.5C 790.791,506.737 791.791,506.404 792.5,505.5 Z"/></g>
<g><path style="opacity:1" fill="#020202" d="M 469.5,543.5 C 469.5,544.167 469.5,544.833 469.5,545.5C 468.016,553.304 467.016,561.304 466.5,569.5C 465.89,570.391 465.557,571.391 465.5,572.5C 465.167,575.833 464.833,579.167 464.5,582.5C 447.167,582.5 429.833,582.5 412.5,582.5C 414.694,559.009 417.86,535.675 422,512.5C 432.247,512.771 442.581,512.438 453,511.5C 459.451,512.595 465.951,513.262 472.5,513.5C 472.5,515.167 472.5,516.833 472.5,518.5C 508.502,518.333 544.502,518.5 580.5,519C 579.352,522.719 578.686,526.552 578.5,530.5C 542.861,526.636 507.195,522.969 471.5,519.5C 471.328,527.545 470.661,535.545 469.5,543.5 Z"/></g>
<g><path style="opacity:1" fill="#030303" d="M 739.5,528.5 C 736.946,529.388 734.279,529.721 731.5,529.5C 700.516,526.302 669.516,523.302 638.5,520.5C 637.241,527.127 636.241,533.793 635.5,540.5C 634.566,541.568 634.232,542.901 634.5,544.5C 668.5,544.5 702.5,544.5 736.5,544.5C 735.515,548.076 734.848,551.742 734.5,555.5C 701.156,552.092 667.823,548.925 634.5,546C 632.469,553.684 631.136,561.518 630.5,569.5C 630.167,570.167 629.833,570.833 629.5,571.5C 629.058,575.154 628.724,578.821 628.5,582.5C 611.5,582.5 594.5,582.5 577.5,582.5C 581.5,559.167 585.5,535.833 589.5,512.5C 592.69,512.559 595.857,512.893 599,513.5C 608.285,511.267 617.618,511.267 627,513.5C 631.455,512.515 635.955,511.848 640.5,511.5C 640.007,513.806 639.674,516.139 639.5,518.5C 673.167,518.5 706.833,518.5 740.5,518.5C 740.167,521.833 739.833,525.167 739.5,528.5 Z"/></g>
<g><path style="opacity:1" fill="#cccccc" d="M 759.5,506.5 C 763.761,508.274 768.427,509.274 773.5,509.5C 775.5,510.833 777.5,510.833 779.5,509.5C 783.785,510.295 788.119,510.628 792.5,510.5C 791.833,511.167 791.167,511.833 790.5,512.5C 780.211,512.369 769.878,512.369 759.5,512.5C 759.672,511.508 759.338,510.842 758.5,510.5C 758.232,508.901 758.566,507.568 759.5,506.5 Z"/></g>
<g><path style="opacity:1" fill="#525252" d="M 759.5,512.5 C 756.713,513.477 753.713,513.81 750.5,513.5C 750.737,514.791 750.404,515.791 749.5,516.5C 749.5,515.167 749.5,513.833 749.5,512.5C 752.833,512.5 756.167,512.5 759.5,512.5 Z"/></g>
<g><path style="opacity:1" fill="#010101" d="M 790.5,512.5 C 793.898,512.18 797.232,512.513 800.5,513.5C 798.887,521.455 797.554,529.455 796.5,537.5C 795.596,538.209 795.263,539.209 795.5,540.5C 812.534,539.848 829.2,540.515 845.5,542.5C 842.859,555.733 840.859,569.066 839.5,582.5C 805.833,582.5 772.167,582.5 738.5,582.5C 741.609,560.403 745.276,538.403 749.5,516.5C 750.404,515.791 750.737,514.791 750.5,513.5C 753.713,513.81 756.713,513.477 759.5,512.5C 769.878,512.369 780.211,512.369 790.5,512.5 Z"/></g>
<g><path style="opacity:1" fill="#080808" d="M 170.5,519.5 C 206.669,518.17 243.002,518.17 279.5,519.5C 278.332,523.227 277.165,526.893 276,530.5C 240.924,526.479 205.758,522.812 170.5,519.5 Z"/></g>
<g><path style="opacity:1" fill="#6b6b6b" d="M 739.5,528.5 C 738.666,529.748 737.333,530.415 735.5,530.5C 733.955,530.489 732.622,530.156 731.5,529.5C 734.279,529.721 736.946,529.388 739.5,528.5 Z"/></g>
<g><path style="opacity:1" fill="#767676" d="M 796.5,537.5 C 812.8,539.485 829.466,540.152 846.5,539.5C 846.737,540.791 846.404,541.791 845.5,542.5C 829.2,540.515 812.534,539.848 795.5,540.5C 795.263,539.209 795.596,538.209 796.5,537.5 Z"/></g>
<g><path style="opacity:1" fill="#767676" d="M 273.5,544.5 C 239.329,544.168 205.329,544.502 171.5,545.5C 168.126,545.326 164.793,544.826 161.5,544C 199.002,543.169 236.336,543.336 273.5,544.5 Z"/></g>
<g><path style="opacity:1" fill="#777777" d="M 469.5,543.5 C 505.004,543.168 540.337,543.502 575.5,544.5C 540.996,544.168 506.663,544.502 472.5,545.5C 471.5,545.5 470.5,545.5 469.5,545.5C 469.5,544.833 469.5,544.167 469.5,543.5 Z"/></g>
<g><path style="opacity:1" fill="#767676" d="M 635.5,540.5 C 635.5,541.5 635.5,542.5 635.5,543.5C 669.337,543.168 703.004,543.502 736.5,544.5C 702.5,544.5 668.5,544.5 634.5,544.5C 634.232,542.901 634.566,541.568 635.5,540.5 Z"/></g>
<g><path style="opacity:1" fill="#080808" d="M 171.5,545.5 C 205.329,544.502 239.329,544.168 273.5,544.5C 272.506,547.804 271.506,551.137 270.5,554.5C 269.5,554.833 268.5,555.167 267.5,555.5C 235.479,552.331 203.479,548.997 171.5,545.5 Z"/></g>
<g><path style="opacity:1" fill="#090909" d="M 472.5,545.5 C 506.663,544.502 540.996,544.168 575.5,544.5C 575.048,547.876 574.382,551.209 573.5,554.5C 572,554.833 570.5,555.167 569,555.5C 536.895,551.579 504.729,548.246 472.5,545.5 Z"/></g>
<g><path style="opacity:1" fill="#373737" d="M 266.5,571.5 C 233.833,570.167 201.167,570.167 168.5,571.5C 164.753,571.608 161.086,571.108 157.5,570C 194.171,569.167 230.838,569.333 267.5,570.5C 267.376,571.107 267.043,571.44 266.5,571.5 Z"/></g>
<g><path style="opacity:1" fill="#363636" d="M 466.5,569.5 C 501.506,569.167 536.506,569.5 571.5,570.5C 571.376,571.107 571.043,571.44 570.5,571.5C 537.833,570.167 505.167,570.167 472.5,571.5C 470.05,571.298 467.717,571.631 465.5,572.5C 465.557,571.391 465.89,570.391 466.5,569.5 Z"/></g>
<g><path style="opacity:1" fill="#333333" d="M 630.5,569.5 C 664.337,569.168 698.004,569.502 731.5,570.5C 698.329,570.168 665.329,570.502 632.5,571.5C 631.5,571.5 630.5,571.5 629.5,571.5C 629.833,570.833 630.167,570.167 630.5,569.5 Z"/></g>
<g><path style="opacity:1" fill="#090909" d="M 168.5,571.5 C 201.167,570.167 233.833,570.167 266.5,571.5C 266.6,574.667 265.933,577.667 264.5,580.5C 263.167,580.833 261.833,581.167 260.5,581.5C 229.841,578.056 199.174,574.723 168.5,571.5 Z"/></g>
<g><path style="opacity:1" fill="#090909" d="M 472.5,571.5 C 505.167,570.167 537.833,570.167 570.5,571.5C 570.167,574.833 569.833,578.167 569.5,581.5C 537.144,578.354 504.811,575.02 472.5,571.5 Z"/></g>
<g><path style="opacity:1" fill="#090909" d="M 632.5,571.5 C 665.329,570.502 698.329,570.168 731.5,570.5C 730.886,574.135 730.552,577.802 730.5,581.5C 697.815,578.276 665.149,574.943 632.5,571.5 Z"/></g>
</svg>
